<svg xmlns="http://www.w3.org/2000/svg" version="1.1" height="200px" width="400px"> <g>
  <g>
    <g fill="#000000">
      <g></g>
      <g></g>
      <g></g>
      <g></g>
      <g></g>
      <g></g>
      <g></g>
      <g></g>
      <g>
        <path class="path" d="M326.28828,62.84135L326.55123,62.95183c1.16541,0.3143 2.39151,0.48235 3.65806,0.48235c7.73467,0 14.00364,-6.26896 14.00364,-14.00364c0,-7.73467 -6.26896,-14.00364 -14.00364,-14.00364c-7.73467,0 -14.00519,6.26896 -14.00519,14.00364c0,3.7343 1.45949,7.12785 3.84322,9.63761L320.05355,59.06504L286.15852,107.64054L286.11496,107.62965c-1.31634,-0.40922 -2.73693,-0.62861 -4.18553,-0.62861c-7.73467,0 -14.04876,6.26896 -14.04876,14.00364c0,7.73467 6.17872,14.00364 13.91183,14.00364c4.96195,0 9.24551,-2.58134 11.67903,-6.47435L351.99273,149.62966L352.0254,149.63278c-0.02178,0.30964 -0.03268,0.62083 -0.03268,0.93669c0,7.73467 6.26896,14.00364 14.00364,14.00364c7.73467,0 14.00364,-6.26896 14.00364,-14.00364c0,-7.73467 -6.26896,-14.00364 -14.00364,-14.00364c-4.70678,0 -8.87053,2.32149 -11.40985,5.88308L354.59118,142.45358L295.61253,121.00468c0,-3.46979 -0.60682,-6.6455 -3.71874,-9.09303L291.89379,111.92098L326.19492,62.94405"></path>
      </g>
      <g></g>
      <g></g>
    </g>
    <g>
      <g fill="#000000">
        <polygon points="26.4,39.67 38.52,39.67 38.52,140.73 26.4,140.73 26.4,39.67"></polygon>
        <path class="path" d="M61.62306,68.5483L66.67606,68.5483c1.73246,0 2.91149,0.12031 3.5371,0.36093c0.62561,0.24062 1.5159,0.84217 2.67087,1.80464c1.53996,1.25122 2.30994,2.45431 2.30994,3.60928L75.77145,74.32316c0,-1.15497 1.05872,-2.35807 3.17617,-3.60928c1.73246,-1.05872 2.91149,-1.68433 3.5371,-1.87683c0.62561,-0.1925 1.80464,-0.28874 3.5371,-0.28874L111.57554,68.5483c2.30994,0 4.61988,0.96248 6.92982,2.88743L121.97028,74.32316c2.30994,1.92495 3.46491,4.33114 3.46491,7.21857L125.43519,140.73397L113.308,140.73397L113.308,84.57352c0,-1.44371 -0.07219,-2.38213 -0.21656,-2.81524c-0.14437,-0.43311 -0.64967,-0.98654 -1.5159,-1.66027c-0.86623,-0.67373 -1.53996,-1.08279 -2.0212,-1.22716c-0.48124,-0.14437 -1.58808,-0.21656 -3.32054,-0.21656L87.75427,78.6543c-1.73246,0 -2.91149,0.09625 -3.5371,0.28874c-0.62561,0.1925 -1.80464,0.8181 -3.5371,1.87683c-1.73246,1.05872 -2.74306,1.8287 -3.0318,2.30994c-0.28874,0.48124 -0.43311,1.44371 -0.43311,2.88743L77.21516,140.73397L65.08797,140.73397L65.08797,84.57352c0,-1.44371 -0.07219,-2.38213 -0.21656,-2.81524c-0.14437,-0.43311 -0.64967,-0.98654 -1.5159,-1.66027c-0.86623,-0.67373 -1.37153,-1.22716 -1.5159,-1.66027c-0.14437,-0.43311 -0.21656,-1.37153 -0.21656,-2.81524L61.62306,68.5483z"></path>
        <path class="path" d="M149.5452,78.6543L141.74915,78.6543c-1.25122,-0.96248 -1.99714,-1.70839 -2.23776,-2.23776c-0.24062,-0.52936 -0.36093,-1.90089 -0.36093,-4.11458L139.15047,68.5483L149.5452,68.5483L149.5452,50.35751c0,-2.88743 1.15497,-5.29362 3.46491,-7.21857L156.47503,40.25152c2.30994,-1.92495 4.61988,-2.88743 6.92982,-2.88743L180.72941,37.36409c1.25122,0.96248 1.99714,1.70839 2.23776,2.23776c0.24062,0.52936 0.36093,1.90089 0.36093,4.11458L183.3281,47.47009L167.88036,47.47009c-1.8287,0 -3.32054,0.48124 -4.47551,1.44371c-0.86623,0.67373 -1.37153,1.22716 -1.5159,1.66027c-0.14437,0.43311 -0.21656,1.37153 -0.21656,2.81524L161.6724,68.5483L177.84198,68.5483c1.25122,0.96248 1.99714,1.70839 2.23776,2.23776c0.24062,0.52936 0.36093,1.90089 0.36093,4.11458L180.44067,78.6543L161.6724,78.6543L161.6724,140.73397L149.5452,140.73397L149.5452,78.6543z"></path>
        <path class="path" x="0" y="0" d="M208.15997,68.5483L242.80909,68.5483c2.30994,0 4.61988,0.96248 6.92982,2.88743L253.20382,74.32316c2.30994,1.92495 3.46491,4.33114 3.46491,7.21857L256.66873,127.74055c0,2.88743 -1.15497,5.29362 -3.46491,7.21857L249.73891,137.84654c-2.30994,1.92495 -4.61988,2.88743 -6.92982,2.88743L208.15997,140.73397c-2.30994,0 -4.61988,-0.96248 -6.92982,-2.88743L197.76523,134.95912c-2.30994,-1.92495 -3.46491,-4.33114 -3.46491,-7.21857L194.30032,81.54172c0,-2.88743 1.15497,-5.29362 3.46491,-7.21857L201.23014,71.43573c2.30994,-1.92495 4.61988,-2.88743 6.92982,-2.88743z M244.54154,124.70875L244.54154,84.57352c0,-1.44371 -0.07219,-2.38213 -0.21656,-2.81524c-0.14437,-0.43311 -0.64967,-0.98654 -1.5159,-1.66027c-0.86623,-0.67373 -1.53996,-1.08279 -2.0212,-1.22716c-0.48124,-0.14437 -1.58808,-0.21656 -3.32054,-0.21656L213.50171,78.6543c-1.73246,0 -2.8393,0.07219 -3.32054,0.21656c-0.48124,0.14437 -1.15497,0.55342 -2.0212,1.22716c-0.86623,0.67373 -1.37153,1.22716 -1.5159,1.66027c-0.14437,0.43311 -0.21656,1.37153 -0.21656,2.81524L206.42751,124.70875c0,1.44371 0.07219,2.38213 0.21656,2.81524c0.14437,0.43311 0.64967,0.98654 1.5159,1.66027c0.86623,0.67373 1.53996,1.08279 2.0212,1.22716c0.48124,0.14437 1.58808,0.21656 3.32054,0.21656L237.46735,130.62798c1.73246,0 2.8393,-0.07219 3.32054,-0.21656c0.48124,-0.14437 1.15497,-0.55342 2.0212,-1.22716c0.86623,-0.67373 1.37153,-1.22716 1.5159,-1.66027c0.14437,-0.43311 0.21656,-1.37153 0.21656,-2.81524z"></path>
      </g>
      <g fill="#424242">
        <g>
          <circle cx="26.4" cy="156.24" r="6.4"></circle>
          <circle cx="141.53" cy="156.24" r="6.4"></circle>
          <circle cx="256.67" cy="156.24" r="6.4"></circle>
          <path class="path" x="0" y="0" d="M250.40021,154.97087L250.30426,155.59772L250.27228,156.23737L250.30426,156.88341L250.40021,157.50387L250.48337,157.83648L148.0122,157.83648L147.79472,157.50387L147.89067,156.87062L147.92265,156.23097L147.89067,155.59772L147.79472,154.96447L148.0186,154.63825L250.48337,154.63825z M135.26407,154.97087L135.16812,155.59772L135.13614,156.23737L135.16812,156.88341L135.26407,157.50387L135.04659,157.83648L32.72894,157.83648L32.70335,157.19044L32.76732,156.55719L32.76732,155.91755L32.70335,155.2779L32.73534,154.63825L135.05299,154.63825z"></path>
        </g>
      </g>
    </g>
  </g>
  <g></g>
</g>
</svg>
